<svg width="919" height="41" viewBox="0 0 919 41" fill="none" xmlns="http://www.w3.org/2000/svg">
<mask id="mask0" mask-type="alpha" maskUnits="userSpaceOnUse" x="0" y="0" width="932" height="41">
<rect width="932" height="40.0808" transform="matrix(-1 0 0 1 932 0)" fill="white"/>
</mask>
<g mask="url(#mask0)">
<path d="M861.658 37.7399H933.285V33.7238H863.32L840.612 11.02H209.35V15.0361H838.949L861.658 37.7399Z" fill="#C3C4C4"/>
<path fill-rule="evenodd" clip-rule="evenodd" d="M211.696 13.1876C211.696 19.6622 206.427 24.9294 199.951 24.9294C193.475 24.9294 188.207 19.6622 188.207 13.1876C188.207 6.7136 193.475 1.4458 199.951 1.4458C206.427 1.4458 211.696 6.7136 211.696 13.1876ZM207.679 13.1876C207.679 8.92782 204.212 5.46191 199.951 5.46191C195.69 5.46191 192.224 8.92782 192.224 13.1876C192.224 17.448 195.69 20.9132 199.951 20.9132C204.212 20.9132 207.679 17.448 207.679 13.1876Z" fill="#C3C4C4"/>
</g>
</svg>
