<svg width="46" height="45" viewBox="0 0 46 45" fill="none" xmlns="http://www.w3.org/2000/svg">
<path fill-rule="evenodd" clip-rule="evenodd" d="M23.51 2.38381C22.6578 2.38381 21.7919 2.4387 20.9451 2.54986C15.6095 3.22507 10.8668 5.94099 7.58009 10.1898C4.29063 14.4346 2.85518 19.7113 3.53448 25.0389C4.81074 35.0599 13.3768 42.6148 23.4551 42.6148C24.3073 42.6148 25.1746 42.5572 26.0255 42.4501C31.3528 41.7708 36.0983 39.0563 39.3823 34.8088C42.6758 30.5613 44.114 25.2845 43.4334 19.9584C42.1557 9.94007 33.5938 2.38381 23.51 2.38381ZM23.4551 45C12.176 45 2.59444 36.5503 1.16586 25.3408C0.40559 19.3806 2.01532 13.4794 5.69589 8.7269C9.37371 3.97713 14.6805 0.940073 20.6391 0.183898C21.5942 0.0617566 22.5562 0 23.51 0C34.7932 0 44.3748 8.4538 45.7979 19.6565C46.5568 25.618 44.9498 31.5178 41.2733 36.269C37.5955 41.0229 32.2887 44.0586 26.326 44.8175C25.3764 44.9382 24.4048 45 23.4551 45Z" fill="black"/>
<path fill-rule="evenodd" clip-rule="evenodd" d="M36.9526 28H10.0095C9.44466 28 8.98169 27.5544 8.98169 26.9967C8.98169 26.4443 9.44466 26 10.0095 26H36.9526C37.5174 26 37.9817 26.4443 37.9817 26.9967C37.9817 27.5544 37.5174 28 36.9526 28Z" fill="black"/>
<path fill-rule="evenodd" clip-rule="evenodd" d="M36.9503 19H10.0077C9.44311 19 8.98169 18.5504 8.98169 17.9993C8.98169 17.4509 9.44311 17 10.0077 17H36.9503C37.5189 17 37.9817 17.4509 37.9817 17.9993C37.9817 18.5504 37.5189 19 36.9503 19Z" fill="black"/>
<path fill-rule="evenodd" clip-rule="evenodd" d="M10.9817 18.0419V26.9636C10.9817 27.5339 10.5285 28 9.97905 28C9.42438 28 8.98169 27.5339 8.98169 26.9636V18.0419C8.98169 17.4647 9.42438 17 9.97905 17C10.5285 17 10.9817 17.4647 10.9817 18.0419Z" fill="black"/>
<path fill-rule="evenodd" clip-rule="evenodd" d="M37.9817 18.0419V26.9636C37.9817 27.5339 37.5358 28 36.9791 28C36.4289 28 35.9817 27.5339 35.9817 26.9636V18.0419C35.9817 17.4647 36.4289 17 36.9791 17C37.5358 17 37.9817 17.4647 37.9817 18.0419Z" fill="black"/>
<path fill-rule="evenodd" clip-rule="evenodd" d="M13.4241 11.0248C12.6237 11.0248 11.974 11.6875 11.974 12.4993C11.974 13.318 12.6237 13.9779 13.4241 13.9779H33.5446C34.3397 13.9779 34.9921 13.318 34.9921 12.4993C34.9921 11.6875 34.3397 11.0248 33.5446 11.0248H13.4241ZM33.5446 16H13.4241C11.526 16 9.98169 14.4338 9.98169 12.4993C9.98169 10.5703 11.526 9 13.4241 9H33.5446C35.4374 9 36.9817 10.5703 36.9817 12.4993C36.9817 14.4338 35.4374 16 33.5446 16Z" fill="black"/>
<path fill-rule="evenodd" clip-rule="evenodd" d="M13.4241 31.024C12.6237 31.024 11.974 31.6837 11.974 32.4993C11.974 33.3136 12.6237 33.976 13.4241 33.976H33.5446C34.3397 33.976 34.9921 33.3136 34.9921 32.4993C34.9921 31.6837 34.3397 31.024 33.5446 31.024H13.4241ZM33.5446 36H13.4241C11.526 36 9.98169 34.4303 9.98169 32.4993C9.98169 30.5711 11.526 29 13.4241 29H33.5446C35.4374 29 36.9817 30.5711 36.9817 32.4993C36.9817 34.4303 35.4374 36 33.5446 36Z" fill="black"/>
</svg>
